# xmcd
#
# Track frame offsets: 
#        150
#        17180
#        33134
#        52481
#        68171
#        83546
#        108992
#        127133
#        137595
#        153420
#
# Disc length: 2282 seconds
#
# Revision: 2
# Processed by: cddbd v1.5.2PL0 Copyright (c) Steve Scherf et al.
# Submitted via: ExactAudioCopy v0.95b4
#
DISCID=8408e80a
DTITLE=Electrocution - Inside The Unreal
DYEAR=1993
DGENRE=Metal
TTITLE0=Premature Burial
TTITLE1=Rising Of Infection
TTITLE2=They Died Without Crosses
TTITLE3=Growing Into The Flesh (Bleed To Death)
TTITLE4=Body's Decay
TTITLE5=Ghost Of The Past
TTITLE6=Under The Wings Only Remains
TTITLE7=Back To The Leprosy Death
TTITLE8=Behind The Truth
TTITLE9=Bells Of The End
EXTD=
EXTT0=
EXTT1=
EXTT2=
EXTT3=
EXTT4=
EXTT5=
EXTT6=
EXTT7=
EXTT8=
EXTT9=
PLAYORDER=
